<svg width="22" height="26" viewBox="0 0 22 26" fill="none" xmlns="http://www.w3.org/2000/svg">
<path d="M17.8387 13.5539C17.8599 12.5694 18.1316 11.6065 18.6283 10.7563C19.1249 9.90599 19.83 9.19637 20.677 8.69442C20.1185 7.93576 19.3949 7.31394 18.561 6.8759C17.727 6.43787 16.8045 6.19507 15.863 6.16584C13.8412 5.9589 11.8748 7.34468 10.8449 7.34468C9.79288 7.34375 8.20146 6.19079 6.49551 6.2185C5.39928 6.2467 4.32851 6.55508 3.38513 7.11428C2.44176 7.67348 1.65719 8.46489 1.1061 9.41318C-1.22239 13.3285 0.512201 19.0877 2.74832 22.2547C3.87054 23.8031 5.16917 25.5399 6.88528 25.4771C8.55521 25.4143 9.18606 24.4424 11.1987 24.4424C13.2113 24.4424 13.7848 25.4771 15.5305 25.441C17.3297 25.4143 18.452 23.8844 19.5372 22.3184C20.3386 21.2197 20.9556 19.9978 21.3642 18.7006C20.3357 18.2844 19.4527 17.5741 18.8258 16.6584C18.1988 15.7428 17.8558 14.6626 17.8396 13.5529" fill="#737A91"/>
<path d="M14.5473 4.08619C15.0298 3.52745 15.397 2.87876 15.6278 2.17747C15.8586 1.47618 15.9484 0.736155 15.8921 0C14.4071 0.145768 13.0289 0.837002 12.0239 1.94008C11.5427 2.47024 11.1722 3.09124 10.9343 3.76661C10.6964 4.44199 10.5958 5.15811 10.6385 5.87291C11.3815 5.88308 12.1175 5.72759 12.793 5.41774C13.4685 5.10788 14.0665 4.65144 14.5436 4.08157" fill="#737A91"/>
</svg>
