<svg width="20" height="22" viewBox="0 0 20 22" fill="none" xmlns="http://www.w3.org/2000/svg">
<path d="M0.0145432 0.447297C0.00575521 0.497917 0.00150467 0.549246 0.00184394 0.60065V21.0492C-0.00691408 21.1468 0.0156852 21.2446 0.0662398 21.3279C0.116794 21.4112 0.192564 21.4755 0.282134 21.5111L11.3069 11.1312L0.0154498 0.447297H0.0145432ZM0.421826 0.0103266C0.628214 -0.0213664 0.839025 0.0204029 1.0187 0.12858L10.1894 5.14857L14.9163 7.73525L11.7414 10.7238L0.420919 0.00756376L0.421826 0.0103266ZM14.3539 14.0181L12.0108 15.3003L10.1894 16.2971L1.65094 20.9716L11.7296 11.534L14.3548 14.019L14.3539 14.0181ZM14.9045 13.7169L14.9426 13.6957C14.9426 13.6957 18.9764 11.4878 19.5125 11.1949C20.0486 10.9021 19.9969 10.4993 19.5442 10.2711C19.1914 10.091 16.5917 8.66183 15.4623 8.04011L12.1641 11.1284L14.9045 13.7169Z" fill="#737A91"/>
</svg>
