<svg width="40" height="40" viewBox="0 0 40 40" fill="none" xmlns="http://www.w3.org/2000/svg">
<mask id="mask0" style="mask-type:alpha" maskUnits="userSpaceOnUse" x="6" y="3" width="28" height="34">
<path d="M33.3337 30H13.3337C12.4132 30 11.667 30.7462 11.667 31.6666C11.667 32.5871 12.4132 33.3333 13.3337 33.3333H33.3337V35C33.3337 36.0448 32.7367 36.6666 31.667 36.6666H11.667C8.75633 36.6666 6.66699 34.4903 6.66699 31.6666V8.33331C6.66699 5.50971 8.75633 3.33331 11.667 3.33331H31.667C32.7367 3.33331 33.3337 3.95514 33.3337 4.99998V30Z" fill="white"/>
</mask>
<g mask="url(#mask0)">
<path d="M33.3337 30H13.3337C12.4132 30 11.667 30.7462 11.667 31.6666C11.667 32.5871 12.4132 33.3333 13.3337 33.3333H33.3337V35C33.3337 36.0448 32.7367 36.6666 31.667 36.6666H11.667C8.75633 36.6666 6.66699 34.4903 6.66699 31.6666V8.33331C6.66699 5.50971 8.75633 3.33331 11.667 3.33331H31.667C32.7367 3.33331 33.3337 3.95514 33.3337 4.99998V30Z" fill="#41C0EF"/>
</g>
</svg>
