<svg width="40" height="40" viewBox="0 0 40 40" fill="none" xmlns="http://www.w3.org/2000/svg">
<path opacity="0.3" fill-rule="evenodd" clip-rule="evenodd" d="M10.0003 5H30.0003C31.8413 5 33.3337 6.49238 33.3337 8.33333V31.6667C33.3337 33.5076 31.8413 35 30.0003 35H10.0003C8.15938 35 6.66699 33.5076 6.66699 31.6667V8.33333C6.66699 6.49238 8.15938 5 10.0003 5ZM9.16699 8.33333C8.70675 8.33333 8.33366 8.70643 8.33366 9.16667V10.8333C8.33366 11.2936 8.70675 11.6667 9.16699 11.6667H10.8337C11.2939 11.6667 11.667 11.2936 11.667 10.8333V9.16667C11.667 8.70643 11.2939 8.33333 10.8337 8.33333H9.16699ZM29.167 8.33333C28.7068 8.33333 28.3337 8.70643 28.3337 9.16667V10.8333C28.3337 11.2936 28.7068 11.6667 29.167 11.6667H30.8337C31.2939 11.6667 31.667 11.2936 31.667 10.8333V9.16667C31.667 8.70643 31.2939 8.33333 30.8337 8.33333H29.167ZM9.16699 15C8.70675 15 8.33366 15.3731 8.33366 15.8333V17.5C8.33366 17.9602 8.70675 18.3333 9.16699 18.3333H10.8337C11.2939 18.3333 11.667 17.9602 11.667 17.5V15.8333C11.667 15.3731 11.2939 15 10.8337 15H9.16699ZM29.167 15C28.7068 15 28.3337 15.3731 28.3337 15.8333V17.5C28.3337 17.9602 28.7068 18.3333 29.167 18.3333H30.8337C31.2939 18.3333 31.667 17.9602 31.667 17.5V15.8333C31.667 15.3731 31.2939 15 30.8337 15H29.167ZM9.16699 21.6667C8.70675 21.6667 8.33366 22.0398 8.33366 22.5V24.1667C8.33366 24.6269 8.70675 25 9.16699 25H10.8337C11.2939 25 11.667 24.6269 11.667 24.1667V22.5C11.667 22.0398 11.2939 21.6667 10.8337 21.6667H9.16699ZM29.167 21.6667C28.7068 21.6667 28.3337 22.0398 28.3337 22.5V24.1667C28.3337 24.6269 28.7068 25 29.167 25H30.8337C31.2939 25 31.667 24.6269 31.667 24.1667V22.5C31.667 22.0398 31.2939 21.6667 30.8337 21.6667H29.167ZM29.167 28.3333C28.7068 28.3333 28.3337 28.7064 28.3337 29.1667V30.8333C28.3337 31.2936 28.7068 31.6667 29.167 31.6667H30.8337C31.2939 31.6667 31.667 31.2936 31.667 30.8333V29.1667C31.667 28.7064 31.2939 28.3333 30.8337 28.3333H29.167ZM9.16699 28.3333C8.70675 28.3333 8.33366 28.7064 8.33366 29.1667V30.8333C8.33366 31.2936 8.70675 31.6667 9.16699 31.6667H10.8337C11.2939 31.6667 11.667 31.2936 11.667 30.8333V29.1667C11.667 28.7064 11.2939 28.3333 10.8337 28.3333H9.16699Z" fill="#F7941E"/>
<path fill-rule="evenodd" clip-rule="evenodd" d="M18.9208 24.2871L23.2619 21.3196C23.6419 21.0599 23.7393 20.5414 23.4796 20.1614C23.4217 20.0766 23.3486 20.0033 23.2639 19.9451L18.9228 16.959C18.5436 16.6981 18.0248 16.7941 17.7639 17.1733C17.6684 17.3122 17.6172 17.4769 17.6172 17.6455V23.5991C17.6172 24.0593 17.9903 24.4324 18.4505 24.4324C18.6183 24.4324 18.7822 24.3818 18.9208 24.2871Z" fill="#F7941E"/>
</svg>
