<svg id="Layer_1" data-name="Layer 1" xmlns="http://www.w3.org/2000/svg" viewBox="0 0 398.59 356.4"><defs><style>.cls-1{fill:#313439;}.cls-2{fill:#f7f1e6;}.cls-3{fill:#3b3e43;}.cls-4,.cls-6{fill:#fff;}.cls-5{fill:#19aeec;opacity:0.86;}.cls-6{opacity:0.4;}</style></defs><title>Panda</title><circle class="cls-1" cx="1420.45" cy="1379.9" r="72.45" transform="translate(-1907.69 101.12) rotate(-45)"/><path class="cls-1" d="M1741.28,1379.9a72.45,72.45,0,1,1-72.45-72.45A72.45,72.45,0,0,1,1741.28,1379.9Z" transform="translate(-1348 -1307.45)"/><path class="cls-2" d="M1720.42,1500.8c19.77,86.59,0,163-175,163s-182.2-67.83-164.43-163c17-91,67.81-160.18,164.43-160.18S1699.8,1410.49,1720.42,1500.8Z" transform="translate(-1348 -1307.45)"/><path class="cls-3" d="M1589.38,1521.59c9.31,31.26,47.68,36.39,69.29,22.68s25.63-46.11,9-72.35-47.67-36.4-69.28-22.68S1580.52,1491.8,1589.38,1521.59Z" transform="translate(-1348 -1307.45)"/><path class="cls-3" d="M1582.19,1566.52c0,11.91-13.9,26.73-31,26.73s-31.05-14.82-31.05-26.73S1534,1545,1551.14,1545,1582.19,1554.61,1582.19,1566.52Z" transform="translate(-1348 -1307.45)"/><path class="cls-3" d="M1518.77,1629.69c-8.52,0-18-4.2-28.16-12.56a3.18,3.18,0,1,1,4-4.92c11.94,9.77,22.23,13.11,30.57,9.94,16.62-6.32,21.54-36.07,21.59-36.36a3.18,3.18,0,0,1,6.29,1c-.22,1.38-5.59,33.7-25.62,41.32A24.21,24.21,0,0,1,1518.77,1629.69Z" transform="translate(-1348 -1307.45)"/><path class="cls-3" d="M1577.89,1632.48a20,20,0,0,1-7.56-1.45c-19-7.62-22.62-42.94-22.76-44.44a3.18,3.18,0,0,1,6.34-.61c.88,9.15,6,34,18.79,39.14,7,2.81,16-.44,26.64-9.68a3.19,3.19,0,0,1,4.18,4.82C1594.13,1628.39,1585.55,1632.48,1577.89,1632.48Z" transform="translate(-1348 -1307.45)"/><path class="cls-4" d="M1604.5,1500.47a25.71,25.71,0,1,0,25.71-25.71A25.7,25.7,0,0,0,1604.5,1500.47Z" transform="translate(-1348 -1307.45)"/><path class="cls-3" d="M1617.19,1500.69a13,13,0,1,0,13-13A13,13,0,0,0,1617.19,1500.69Z" transform="translate(-1348 -1307.45)"/><path class="cls-4" d="M1627.28,1490.46a6.83,6.83,0,1,0,6.83-6.83A6.83,6.83,0,0,0,1627.28,1490.46Z" transform="translate(-1348 -1307.45)"/><path class="cls-3" d="M1519.1,1515.75c-9.31,31.27-47.68,36.4-69.29,22.68s-25.63-46.11-9-72.35,47.68-36.39,69.28-22.68S1528,1486,1519.1,1515.75Z" transform="translate(-1348 -1307.45)"/><path class="cls-4" d="M1505.14,1494a25.72,25.72,0,1,1-25.71-25.71A25.71,25.71,0,0,1,1505.14,1494Z" transform="translate(-1348 -1307.45)"/><path class="cls-3" d="M1492.44,1494.18a13,13,0,1,1-13-13A13,13,0,0,1,1492.44,1494.18Z" transform="translate(-1348 -1307.45)"/><path class="cls-4" d="M1482.36,1484a6.84,6.84,0,1,1-6.83-6.84A6.83,6.83,0,0,1,1482.36,1484Z" transform="translate(-1348 -1307.45)"/><path class="cls-4" d="M1571.37,1560.06c-.74,2.86-5,4.24-9.47,3.1s-7.57-4.38-6.84-7.24,5-4.25,9.47-3.1S1572.09,1557.2,1571.37,1560.06Z" transform="translate(-1348 -1307.45)"/><path class="cls-5" d="M1658.13,1427.54a68.39,68.39,0,1,0,68.39,68.4A68.39,68.39,0,0,0,1658.13,1427.54Z" transform="translate(-1348 -1307.45)"/><path class="cls-6" d="M1658.13,1427.54h-.2l-68.18,68.18c0,.07,0,.13,0,.21,0,7.82,1.21,27.38,3.63,34.38l87.09-102.78C1673.46,1425.13,1666,1427.54,1658.13,1427.54Z" transform="translate(-1348 -1307.45)"/><path class="cls-6" d="M1597.5,1540.29c5.57,10.64,38.87,26.46,49,32.89l80.07-115.62c-6.42-10.09-14.08-16.2-24.72-21.76Z" transform="translate(-1348 -1307.45)"/><path class="cls-3" d="M1658.13,1407.48a88.46,88.46,0,1,0,88.46,88.46A88.55,88.55,0,0,0,1658.13,1407.48Zm0,156.84a68.39,68.39,0,1,1,68.39-68.38A68.39,68.39,0,0,1,1658.13,1564.32Z" transform="translate(-1348 -1307.45)"/><path class="cls-5" d="M1452,1421.48a68.39,68.39,0,1,0,68.39,68.39A68.39,68.39,0,0,0,1452,1421.48Z" transform="translate(-1348 -1307.45)"/><path class="cls-6" d="M1452,1421.48h-.21l-68.18,68.18v.21c0,7.82,1.2,27.39,3.62,34.39l87.09-102.78C1467.31,1419.06,1459.81,1421.48,1452,1421.48Z" transform="translate(-1348 -1307.45)"/><path class="cls-6" d="M1391.35,1534.23c5.57,10.64,38.88,26.46,49,32.88l80.07-115.62c-6.43-10.08-14.09-16.19-24.73-21.76Z" transform="translate(-1348 -1307.45)"/><path class="cls-3" d="M1452,1401.42a88.46,88.46,0,1,0,88.45,88.45A88.55,88.55,0,0,0,1452,1401.42Zm0,156.84a68.39,68.39,0,1,1,68.39-68.39A68.39,68.39,0,0,1,1452,1558.26Z" transform="translate(-1348 -1307.45)"/><path class="cls-3" d="M1518.09,1456.46s29.28-16.79,67.06-1.37l-2.21,9.75-2.74,7.92c-26.83-15.17-58.72-.1-58.72-.1l-2.54-7.5Z" transform="translate(-1348 -1307.45)"/></svg>