<svg id="Layer_1" data-name="Layer 1" xmlns="http://www.w3.org/2000/svg" viewBox="0 0 408.24 330.3"><defs><style>.cls-1{fill:#e0dcd3;}.cls-2{fill:#bab7b0;}.cls-3,.cls-6{fill:#fff;}.cls-4{fill:#3b3e43;}.cls-5{fill:none;stroke:#3b3e43;stroke-miterlimit:10;stroke-width:16px;}.cls-6{opacity:0.6;}</style></defs><title>Raccon</title><path class="cls-1" d="M1634.51,1856.45c70.91,131.12-29.73,173.48-193,173.48-186,0-220.32-52.63-173.11-175,40.51-105,112.33-117.85,176.79-117.85S1583.55,1762.22,1634.51,1856.45Z" transform="translate(-1249.32 -1699.63)"/><path class="cls-2" d="M1621.25,1949.82c-16.8,27.88-61.35,35.45-113.83,41-27.87-16.79-33.43-116-26.56-147.78,7.37-34.06,41.14-60.15,86.1-24.68C1592.51,1838.48,1638.05,1922,1621.25,1949.82Z" transform="translate(-1249.32 -1699.63)"/><path class="cls-2" d="M1285.1,1954.42c16.79,27.88,84.82,35.92,118.42,39.6,27.88-16.8,37.91-112.8,29-156.07-6.56-31.88-54.78-66.3-98.06-18.88S1268.29,1926.55,1285.1,1954.42Z" transform="translate(-1249.32 -1699.63)"/><path class="cls-3" d="M1510.7,1870.81a29.74,29.74,0,1,0,29.74-29.74A29.74,29.74,0,0,0,1510.7,1870.81Z" transform="translate(-1249.32 -1699.63)"/><path class="cls-4" d="M1525.39,1871.06a15,15,0,1,0,15-15A15,15,0,0,0,1525.39,1871.06Z" transform="translate(-1249.32 -1699.63)"/><path class="cls-3" d="M1537.05,1859.23a7.91,7.91,0,1,0,7.91-7.9A7.91,7.91,0,0,0,1537.05,1859.23Z" transform="translate(-1249.32 -1699.63)"/><path class="cls-3" d="M1395.79,1863.28a29.74,29.74,0,1,1-29.74-29.74A29.74,29.74,0,0,1,1395.79,1863.28Z" transform="translate(-1249.32 -1699.63)"/><path class="cls-4" d="M1381.11,1863.53a15.06,15.06,0,1,1-15.06-15A15.05,15.05,0,0,1,1381.11,1863.53Z" transform="translate(-1249.32 -1699.63)"/><path class="cls-3" d="M1369.45,1851.71a7.91,7.91,0,1,1-7.91-7.91A7.9,7.9,0,0,1,1369.45,1851.71Z" transform="translate(-1249.32 -1699.63)"/><path class="cls-3" d="M1550,1959c0,30.51-57.23,55.24-106.68,55.24s-89.54-24.73-89.54-55.24,40.08-55.25,89.54-55.25S1550,1928.52,1550,1959Z" transform="translate(-1249.32 -1699.63)"/><path class="cls-4" d="M1489,1955.35c0,14.26-16.64,32-37.15,32s-37.15-17.74-37.15-32,16.63-25.79,37.15-25.79S1489,1941.11,1489,1955.35Z" transform="translate(-1249.32 -1699.63)"/><path class="cls-3" d="M1476.06,1947.63c-.86,3.42-5.93,5.08-11.32,3.71s-9-5.25-8.18-8.67,5.94-5.07,11.33-3.71S1476.93,1944.21,1476.06,1947.63Z" transform="translate(-1249.32 -1699.63)"/><path class="cls-1" d="M1305.15,1701.52c-27,13,1,99.44,1,99.44l91.49-54S1332.17,1688.48,1305.15,1701.52Z" transform="translate(-1249.32 -1699.63)"/><path class="cls-2" d="M1316.18,1714.18c-18.15,8.76.67,66.81.67,66.81l61.47-36.26S1334.33,1705.41,1316.18,1714.18Z" transform="translate(-1249.32 -1699.63)"/><path class="cls-1" d="M1601.34,1701.52c27,13-1,99.44-1,99.44l-91.48-54S1574.33,1688.48,1601.34,1701.52Z" transform="translate(-1249.32 -1699.63)"/><path class="cls-2" d="M1590.31,1714.18c18.16,8.76-.65,66.81-.65,66.81l-61.48-36.26S1572.17,1705.41,1590.31,1714.18Z" transform="translate(-1249.32 -1699.63)"/><rect class="cls-5" x="239.15" y="98.18" width="132.93" height="114.5" rx="20.78"/><rect class="cls-5" x="239.15" y="98.18" width="132.93" height="114.5" rx="20.78"/><rect class="cls-6" x="243.1" y="100.15" width="127.67" height="109.97" rx="20.78"/><path class="cls-5" d="M1405.42,1912.28h-97c-9.93,1.73-18-6.31-18-16.24v-78.55c0-9.93,8-18,18-19.71h97c9.93,1.73,18,9.78,18,19.71V1896C1423.4,1906,1415.35,1914,1405.42,1912.28Z" transform="translate(-1249.32 -1699.63)"/><path class="cls-5" d="M1405.42,1912.28h-97c-9.93,1.73-18-6.31-18-16.24v-78.55c0-9.93,8-18,18-19.71h97c9.93,1.73,18,9.78,18,19.71V1896C1423.4,1906,1415.35,1914,1405.42,1912.28Z" transform="translate(-1249.32 -1699.63)"/><path class="cls-6" d="M1404.11,1909.72H1312.4c-9.93,1.73-18-6.32-18-16.24v-74c0-9.93,8-18,18-19.71h91.71c9.92,1.73,18,9.78,18,19.71v74C1422.08,1903.4,1414,1911.45,1404.11,1909.72Z" transform="translate(-1249.32 -1699.63)"/><rect class="cls-4" x="177.74" y="151.01" width="60.69" height="16.67" rx="5.68"/></svg>