<svg width="40" height="40" viewBox="0 0 40 40" fill="none" xmlns="http://www.w3.org/2000/svg">
<path opacity="0.3" d="M34.167 23.3334C35.5477 23.3334 36.667 22.2141 36.667 20.8334C36.667 19.4527 35.5477 18.3334 34.167 18.3334C32.7863 18.3334 31.667 19.4527 31.667 20.8334C31.667 22.2141 32.7863 23.3334 34.167 23.3334Z" fill="#2B3990"/>
<path opacity="0.3" d="M31.3689 1.74785L5.61085 8.64969C4.72174 8.88793 4.19411 9.80182 4.43234 10.6909L6.58917 18.7403C6.8274 19.6294 7.7413 20.1571 8.63041 19.9188L34.3884 13.017C35.2775 12.7787 35.8052 11.8649 35.5669 10.9757L33.4101 2.92636C33.1719 2.03725 32.258 1.50961 31.3689 1.74785Z" fill="#2B3990"/>
<path fill-rule="evenodd" clip-rule="evenodd" d="M36.6663 15.5613C35.9086 15.2014 35.061 15 34.1663 15C30.9447 15 28.333 17.6116 28.333 20.8333C28.333 24.055 30.9447 26.6666 34.1663 26.6666C35.061 26.6666 35.9086 26.4652 36.6663 26.1053V30C36.6663 31.8409 35.174 33.3333 33.333 33.3333H6.66634C4.82539 33.3333 3.33301 31.8409 3.33301 30V9.99996C3.33301 8.15901 4.82539 6.66663 6.66634 6.66663H33.333C35.174 6.66663 36.6663 8.15901 36.6663 9.99996V15.5613Z" fill="#2B3990"/>
</svg>
