<svg xmlns="http://www.w3.org/2000/svg" viewBox="0 0 398.65 400.11"><defs><style>.cls-1{fill:#d7df2f;}.cls-2{fill:#19a79d;}.cls-3{fill:#f79425;}.cls-4{fill:#ef4109;}.cls-5{fill:#41c0ef;}.cls-6{fill:#be1e2d;}.cls-7{fill:#1690cc;}.cls-8{fill:#2b3990;}.cls-9{fill:#022559;}.cls-10{fill:#139216;}.cls-11{fill:#d0811e;}.cls-12{fill:#30172a;}.cls-13{fill:#e93419;}.cls-14{fill:#b40b10;}.cls-15{fill:#0f6cbf;}.cls-16{fill:#022073;}</style></defs><g id="Layer_2" data-name="Layer 2"><g id="Layer_1-2" data-name="Layer 1"><g id="Group_15" data-name="Group 15"><g id="Group_9" data-name="Group 9"><g id="Union_1" data-name="Union 1"><path class="cls-1" d="M314.93,368.05a16.35,16.35,0,0,1-5.13,3.46,16.15,16.15,0,0,1-22.43-14.88V313.2l-.19-.2-17.82-17.81-.48-.48-.47.48L251.59,312A13.23,13.23,0,0,1,230,307.63a13.24,13.24,0,0,1,0-9.95,13.07,13.07,0,0,1,2.91-4.37l58.94-58.94a13.18,13.18,0,0,1,18.69,0,13,13,0,0,1,2.9,4.37,13.21,13.21,0,0,1-2.9,14.32l-17.32,17.31-.48.48.48.48,17.14,17.13.2.2h.29l43.95-.77a16.09,16.09,0,0,1,11.49,4.53A16.17,16.17,0,0,1,370,310.19,16.9,16.9,0,0,1,368.5,313a15.62,15.62,0,0,1-2,2.44,16,16,0,0,1-11.13,4.73l-35,.61h-.67v35.84a16,16,0,0,1-1.27,6.28A16.28,16.28,0,0,1,314.93,368.05Z"/></g><g id="Ellipse_2" data-name="Ellipse 2"><circle class="cls-1" cx="251.45" cy="255.29" r="15.36"/></g></g><g id="Group_8" data-name="Group 8"><g id="Ellipse_2-2" data-name="Ellipse 2-2"><circle class="cls-2" cx="198.37" cy="275.5" r="15.36"/></g><g id="Union_1-2" data-name="Union 1-2"><path class="cls-2" d="M163.53,400.11a16.06,16.06,0,0,1-11.42-4.73,16.15,16.15,0,0,1,0-22.83L182.63,342l.2-.2V315.69H158.38A13.21,13.21,0,0,1,149,293.13a13.41,13.41,0,0,1,4.2-2.83,13.13,13.13,0,0,1,5.15-1h83.35a13.13,13.13,0,0,1,5.15,1,13.24,13.24,0,0,1,7,7,13.21,13.21,0,0,1-12.18,18.36H216.57v25.2l.21.2,31.62,30.53a16.14,16.14,0,0,1-5,26.52,15.53,15.53,0,0,1-3,.92A16.12,16.12,0,0,1,226,394.84L200.76,370.5l-.48-.46-.47.47-24.87,24.87a16.06,16.06,0,0,1-11.41,4.73Z"/></g></g><g id="Group_10" data-name="Group 10"><g id="Union_1-3" data-name="Union 1-3"><path class="cls-3" d="M398.65,238a16.15,16.15,0,0,1-27.56,11.42l-30.51-30.52-.2-.2H314.23v24.45a13.22,13.22,0,1,1-26.43,0V159.84a13.19,13.19,0,0,1,3.87-9.35,13.41,13.41,0,0,1,4.2-2.83,13.25,13.25,0,0,1,10.29,0,13.24,13.24,0,0,1,7,7,13.13,13.13,0,0,1,1,5.15V185h25.2l.2-.21,30.53-31.62a16.14,16.14,0,1,1,23.22,22.43L369,200.81l-.47.48.47.47,24.88,24.87A16.17,16.17,0,0,1,398.65,238Z"/></g><g id="Ellipse_2-3" data-name="Ellipse 2-3"><circle class="cls-3" cx="274.03" cy="203.2" r="15.36"/></g></g><g id="Group_11" data-name="Group 11"><g id="Union_1-4" data-name="Union 1-4"><path class="cls-4" d="M367,86.49a16,16,0,0,1,3.38,5.19A16.27,16.27,0,0,1,371.5,98a16.15,16.15,0,0,1-10.11,14.7,16.18,16.18,0,0,1-6.31,1.17l-43.14-.74h-.28l-.2.19-18.12,17.51-.48.47.47.49,16.52,17.09a13.21,13.21,0,1,1-19,18.37L232.91,107.3a13.26,13.26,0,0,1-3.71-9.41,13.14,13.14,0,0,1,4-9.28,13.2,13.2,0,0,1,18.69.32l17,17.6.48.49.48-.47,17.42-16.84.21-.2v-.29l0-44a16.15,16.15,0,0,1,22.55-14.82,16.22,16.22,0,0,1,8.51,8.66,16,16,0,0,1,1.22,6.15l0,35.05V81h.66l35.17.6A16,16,0,0,1,367,86.49Z"/></g><g id="Ellipse_2-4" data-name="Ellipse 2-4"><circle class="cls-4" cx="253.15" cy="148.04" r="15.35"/></g></g><g id="Group_13" data-name="Group 13"><g id="Union_1-5" data-name="Union 1-5"><path class="cls-5" d="M83.72,33.52a16.24,16.24,0,0,1,5.13-3.46,16.14,16.14,0,0,1,22.42,14.88V88.37l.2.2,17.81,17.81.48.48.48-.48L147,89.59a13.06,13.06,0,0,1,4.38-2.91,13.21,13.21,0,0,1,10,0,13.23,13.23,0,0,1,7.27,7.27,13.21,13.21,0,0,1,0,10,13.06,13.06,0,0,1-2.91,4.38l-59,59a13.15,13.15,0,0,1-9.35,3.88A13.21,13.21,0,0,1,84.11,158,13.15,13.15,0,0,1,88,148.63l17.43-17.43.48-.48-.48-.48L88.29,113.11l-.2-.2H87.8l-43.95.77a16.09,16.09,0,0,1-11.5-4.53,16,16,0,0,1-4.92-11.33,16.1,16.1,0,0,1,1.21-6.44,16,16,0,0,1,3.51-5.25A16.09,16.09,0,0,1,43.28,81.4l35.05-.61H79V44.94a16.09,16.09,0,0,1,4.73-11.42Z"/></g><g id="Ellipse_2-5" data-name="Ellipse 2-5"><circle class="cls-5" cx="147.19" cy="146.28" r="15.36"/></g></g><g id="Group_12" data-name="Group 12"><g id="Union_1-6" data-name="Union 1-6"><path class="cls-6" d="M233.66,0a16.06,16.06,0,0,1,11.41,4.73,16.11,16.11,0,0,1,3.54,17.48,15.92,15.92,0,0,1-3.54,5.34L214.56,58.07l-.2.2V84.41h24.45a13.12,13.12,0,0,1,5.14,1,13.3,13.3,0,0,1,4.2,2.83A13.23,13.23,0,0,1,251,102.77a12.86,12.86,0,0,1-2.83,4.2,13.14,13.14,0,0,1-9.34,3.88H155.45a13.22,13.22,0,1,1,0-26.44h25.16V59.22l-.2-.2L148.79,28.48a15.82,15.82,0,0,1-3.64-5.27,16.13,16.13,0,0,1-1.29-6.05,16.13,16.13,0,0,1,4.53-11.5A16.17,16.17,0,0,1,156.85,1,16.57,16.57,0,0,1,160,.73a16.1,16.1,0,0,1,11.21,4.53l25.21,24.35.48.46.47-.47L222.24,4.73A16.06,16.06,0,0,1,233.66,0Z"/></g><g id="Ellipse_2-6" data-name="Ellipse 2-6"><circle class="cls-6" cx="198.81" cy="124.61" r="15.36"/></g></g><g id="Group_14" data-name="Group 14"><g id="Union_1-7" data-name="Union 1-7"><path class="cls-7" d="M0,166.45a16.12,16.12,0,0,1,1.18-6.07,16.24,16.24,0,0,1,8.89-8.89,16.2,16.2,0,0,1,12.14,0A16,16,0,0,1,27.55,155l30.52,30.51.2.2H84.41V161.3a13,13,0,0,1,1-5.14,13.19,13.19,0,0,1,7-7,13.22,13.22,0,0,1,10.28,0,13.27,13.27,0,0,1,7,7,13,13,0,0,1,1,5.14v83.36A13.22,13.22,0,0,1,88.28,254a13.3,13.3,0,0,1-2.83-4.2,13.12,13.12,0,0,1-1-5.14V219.49H59.22l-.2.21L28.48,251.32A16,16,0,0,1,23.21,255,16.15,16.15,0,0,1,1,243.26a16.73,16.73,0,0,1-.31-3.15A16.05,16.05,0,0,1,5.26,228.9l24.35-25.21.46-.48-.47-.47L4.73,177.86a16,16,0,0,1-3.55-5.33A16.21,16.21,0,0,1,0,166.45Z"/></g><g id="Ellipse_2-7" data-name="Ellipse 2-7"><circle class="cls-7" cx="124.61" cy="201.3" r="15.36"/></g></g><g id="Group_7" data-name="Group 7"><g id="Union_1-8" data-name="Union 1-8"><path class="cls-8" d="M33.53,316.39a16.13,16.13,0,0,1,0-22.83,16.09,16.09,0,0,1,11.41-4.73H88.37l.2-.2,17.81-17.82.48-.47-.48-.48L89.57,253.06a13.23,13.23,0,0,1-2.9-14.32,13,13,0,0,1,2.9-4.37,13.27,13.27,0,0,1,14.32-2.91,13.07,13.07,0,0,1,4.37,2.91l58.94,58.94a13.08,13.08,0,0,1,3.87,9.34,13.25,13.25,0,0,1-1,5,13.23,13.23,0,0,1-21.6,4.37L131.2,294.68l-.48-.47-.48.47-17.13,17.14-.2.2v.29l.77,43.95a16.15,16.15,0,0,1-22.29,15.21A16.28,16.28,0,0,1,88.57,370a15.62,15.62,0,0,1-2.44-2,16,16,0,0,1-4.73-11.13l-.61-35v-.66H44.94a16.09,16.09,0,0,1-11.41-4.73Z"/></g><g id="Ellipse_2-8" data-name="Ellipse 2-8"><circle class="cls-8" cx="146.28" cy="252.92" r="15.36"/></g></g><path id="Path_31" data-name="Path 31" class="cls-9" d="M157.84,288.79a13.67,13.67,0,1,1-13.36,13.67A13.52,13.52,0,0,1,157.84,288.79Z"/><path id="Path_32" data-name="Path 32" class="cls-10" d="M241.2,288.79a13.67,13.67,0,1,1-13.36,13.67A13.52,13.52,0,0,1,241.2,288.79Z"/><path id="Path_33" data-name="Path 33" class="cls-11" d="M293.32,232.76a13.67,13.67,0,1,1-3.1,18.87A13.53,13.53,0,0,1,293.32,232.76Z"/><path id="Path_36" data-name="Path 36" class="cls-12" d="M149.08,85.45a14,14,0,0,1,18.84,6.17c3.7,7,1.27,15.51-5.43,19.07a14.3,14.3,0,0,1-13.41-25.24Z"/><path id="Path_34" data-name="Path 34" class="cls-13" d="M293.17,148.05a13.68,13.68,0,1,1-3.69,19.27A13.88,13.88,0,0,1,293.17,148.05Z"/><path id="Path_35" data-name="Path 35" class="cls-14" d="M243.2,84.31c6.61,1.28,10.79,8.34,9.35,15.77s-8,12.41-14.58,11.12-10.79-8.34-9.35-15.77S236.59,83,243.2,84.31Z"/><path id="Path_38" data-name="Path 38" class="cls-15" d="M100.09,147.85c7.42,1.32,12.5,7.64,11.36,14.12s-8.09,10.69-15.51,9.38-12.5-7.63-11.36-14.12S92.67,146.54,100.09,147.85Z"/><path id="Path_39" data-name="Path 39" class="cls-16" d="M98.29,229.38c7.28,0,13.18,6.23,13.18,13.91s-5.9,13.91-13.18,13.91S85.1,251,85.1,243.29,91,229.38,98.29,229.38Z"/></g></g></g></svg>