<svg xmlns="http://www.w3.org/2000/svg" width="492.056" height="374.998" viewBox="0 0 492.056 374.998">
  <path id="Path_773" data-name="Path 773" d="M277.509,514.888a50.433,50.433,0,0,1-31.336-10.761,35.475,35.475,0,0,1-14.1-32.518c3.488-32.7,71.717-224.228,185.354-321.339a28,28,0,0,1,22.408-6.829,14.781,14.781,0,0,1,12.179,8.869c5.676,14.19,17.028,148.283,68.82,96.491s208.59,156.088,202.914,230.584-180.919,18.683-173.825,19.274c0,0,29.089-120.022-83.72-119.312,0,0-79.2,9.726-68.7,103.083a19.57,19.57,0,0,1-13.037,20.693C368.442,508.68,336.87,515.124,277.509,514.888Z" transform="translate(-231.842 -143.183)" fill="#2a3692"/>
</svg>
