<svg xmlns="http://www.w3.org/2000/svg" width="265.271" height="248.528" viewBox="0 0 265.271 248.528">
  <g id="Group_110" data-name="Group 110" transform="translate(-1061.954 -200.277)">
    <path id="Path_742" data-name="Path 742" d="M256.462,343.572a27.189,27.189,0,0,1-16.893-5.8,19.125,19.125,0,0,1-7.6-17.531c1.88-17.626,38.663-120.883,99.926-173.237a15.092,15.092,0,0,1,12.08-3.681,7.968,7.968,0,0,1,6.566,4.781c3.06,7.65,9.18,79.941,37.1,52.019s112.452,84.148,109.392,124.31S399.5,334.5,403.322,334.822c0,0,15.682-64.7-45.134-64.322,0,0-42.7,5.243-37.038,55.573a10.55,10.55,0,0,1-7.028,11.156C305.484,340.225,288.463,343.7,256.462,343.572Z" transform="translate(830.112 57.095)" fill="#2a3692"/>
    <path id="Path_744" data-name="Path 744" d="M357.269,301.718a1.275,1.275,0,0,1-.446.574,3.346,3.346,0,0,1-1.386.51c-.7.143-1.179.223-1.434.255q.383,1.817.382,1.769.335,1.2.717,3.3.861,4.781,1.769,8.224a10.806,10.806,0,0,1,.239,1.291,1.036,1.036,0,0,1-.383.813,1.339,1.339,0,0,1-.908.335,1.068,1.068,0,0,1-.861-.494,3.667,3.667,0,0,1-.526-.892c-.287-1.084-.558-2.295-.8-3.634s-.51-2.948-.829-4.781c-.127-.829-.335-1.849-.622-3.076s-.478-2.04-.574-2.422q-2.821.383-9.706,1.594l-2.773.478-1,2.821L336.79,312.2q-1.673,5.211-2.391,7.969a2.326,2.326,0,0,1-.574,1.132,1.5,1.5,0,0,1-1.944.159.972.972,0,0,1-.351-.813,9.256,9.256,0,0,1,.574-2.215c.382-1.132.606-1.817.669-2.04s.383-1.052.765-2.2.94-2.741,1.594-4.51,1.1-2.948,1.323-3.522q-2.438.574-3.634.908a13.293,13.293,0,0,1-2.247.478.876.876,0,0,1-.8-.4,1.594,1.594,0,0,1-.255-.892.908.908,0,0,1,.287-.781,3.062,3.062,0,0,1,.956-.414c1.211-.287,2.486-.574,3.841-.861l2.8-.574q.478-1.386.717-2.343c.128-.414.287-.924.494-1.594s.446-1.4.7-2.327l.717-2.438q1.817-6.375,2.1-7.315a7.155,7.155,0,0,1,.446-1.052.669.669,0,0,1,.606-.382,4.876,4.876,0,0,1,1.721.287,3.368,3.368,0,0,0,.3-.4,1.211,1.211,0,0,1,.478-.43,1.72,1.72,0,0,1,.7-.128c.574,0,1.227.653,1.976,1.96a35.4,35.4,0,0,1,2.183,4.638c.414,1.052.94,2.63,1.594,4.781s1.052,3.458,1.243,4.128a6.665,6.665,0,0,0,1.211-.255l.653-.223a2.04,2.04,0,0,0,.526-.335,2.726,2.726,0,0,1,.526-.351.558.558,0,0,1,.526,0,1.179,1.179,0,0,1,.622,1.2,1.816,1.816,0,0,1-.191.669Zm-7.092-3.984c-.51-1.833-.988-3.331-1.434-4.478a26.531,26.531,0,0,0-1.721-3.634,7.282,7.282,0,0,0-1.769-2.343l-.526,1.243a23.912,23.912,0,0,0-1.386,3.3q-1.148,3.442-3.634,11.379l5.594-.956,4.59-.717,1.291-.191Z" transform="translate(859.237 125.508)" fill="#2a3692"/>
    <path id="Path_746" data-name="Path 746" d="M363.612,304.924a29.207,29.207,0,0,1-1.976,2.677,34.222,34.222,0,0,1-4.478,4.638,6.375,6.375,0,0,1-4.128,1.594,3.586,3.586,0,0,1-3-1.594,5.929,5.929,0,0,1-1.163-3.634,24.7,24.7,0,0,1,1.594-7.745,31.331,31.331,0,0,1,4.112-8.128q2.486-3.442,4.972-3.442a2.486,2.486,0,0,1,1.817.765,4.78,4.78,0,0,1,.813,1.147,2.805,2.805,0,0,1,.382,1.291,9.928,9.928,0,0,1-.223,1.9c-.143.717-.287,1.068-.446,1.068a.606.606,0,0,1-.622-.526,6.713,6.713,0,0,1-.191-1.339,9.068,9.068,0,0,0-.287-1.594c-.1-.271-.239-.414-.43-.414-1.5,0-2.948,1.052-4.351,3.187a28.94,28.94,0,0,0-3.442,7.267,22.52,22.52,0,0,0-1.339,6.375q0,3.187,2.1,3.187a5.275,5.275,0,0,0,2.789-.765,14.345,14.345,0,0,0,2.661-2.152,47.318,47.318,0,0,0,4.016-4.542l.542-.733c.3-.4.526-.606.653-.606q.574,0,.574.43a6.5,6.5,0,0,1-.956,1.689Z" transform="translate(870.727 127.752)" fill="#2a3692"/>
    <path id="Path_748" data-name="Path 748" d="M374.742,304.924a29.174,29.174,0,0,1-1.976,2.677,34.222,34.222,0,0,1-4.478,4.638,6.375,6.375,0,0,1-4.128,1.594,3.586,3.586,0,0,1-3-1.594A5.929,5.929,0,0,1,360,308.606a24.7,24.7,0,0,1,1.594-7.745,31.331,31.331,0,0,1,4.112-8.128q2.486-3.442,4.972-3.442a2.486,2.486,0,0,1,1.817.765,4.782,4.782,0,0,1,.813,1.147,2.806,2.806,0,0,1,.383,1.291,9.935,9.935,0,0,1-.223,1.9c-.143.717-.287,1.068-.446,1.068a.606.606,0,0,1-.621-.526,6.709,6.709,0,0,1-.191-1.339,9.068,9.068,0,0,0-.287-1.594c-.1-.271-.239-.414-.43-.414-1.5,0-2.948,1.052-4.351,3.187a28.94,28.94,0,0,0-3.442,7.267,22.52,22.52,0,0,0-1.339,6.375q0,3.187,2.1,3.187a5.275,5.275,0,0,0,2.789-.765,14.341,14.341,0,0,0,2.662-2.152,47.318,47.318,0,0,0,4.016-4.542l.542-.733c.3-.4.526-.606.653-.606q.574,0,.574.43a6.506,6.506,0,0,1-.956,1.689Z" transform="translate(877.335 127.752)" fill="#2a3692"/>
    <path id="Path_750" data-name="Path 750" d="M392.48,310.816a.988.988,0,0,1,.335.59,2.534,2.534,0,0,1-.478,1.323c-.319.494-.637.733-.956.733a1.628,1.628,0,0,1-1.243-1,5.911,5.911,0,0,1-.43-2.343q0-1.147.143-6.885v-1.817a1.945,1.945,0,0,0-.574-1.594q-2.151,3.634-4.016,6.375a25.5,25.5,0,0,1-4.781,5.052,9.339,9.339,0,0,1-6.024,2.359,3,3,0,0,1-2.375-.956,3.633,3.633,0,0,1-.829-2.486,12.477,12.477,0,0,1,1.721-5.227,43.311,43.311,0,0,1,4.4-6.741,35.878,35.878,0,0,1,5.355-5.626,15.612,15.612,0,0,1,2.821-1.928,4.446,4.446,0,0,1,1.865-.51,3.187,3.187,0,0,1,1.594.478,4.254,4.254,0,0,1,1.386,1.339,3.459,3.459,0,0,1,.574,1.96,5.355,5.355,0,0,1-.813,2.821l.813-.239q.526,0,.622,1.291c0,.51,0,1.594.112,3.187s.1,2.853.128,3.873,0,2.072.1,3.06,0,1.769.1,2.343A1.339,1.339,0,0,0,392.48,310.816Zm-12.287-1.753a22.458,22.458,0,0,0,4.271-4.558q1.881-2.646,4.191-6.534a8.288,8.288,0,0,0,.574-3.108,2.677,2.677,0,0,0-.606-1.737,1.944,1.944,0,0,0-1.594-.749,5.291,5.291,0,0,0-3.06,1.594,33.473,33.473,0,0,0-4.542,4.861,40.514,40.514,0,0,0-3.968,5.992,10.948,10.948,0,0,0-1.594,4.685q0,1.434,1.339,1.434a7.873,7.873,0,0,0,4.988-1.9Z" transform="translate(884.013 128.251)" fill="#2a3692"/>
    <path id="Path_751" data-name="Path 751" d="M399.9,319.145c-1.2,0-1.594-.845-3.076-3.793q-1.386-2.917-2.916-6.263l-2.056-4.494c-1.227-2.677-2.263-4.781-3.06-6.263-.255-.462-.446-.781-.606-1.036h-.382a2.12,2.12,0,0,1-1.594-.829,2.343,2.343,0,0,1-.494-1.434,4.494,4.494,0,0,1,.972-2.534,3.3,3.3,0,0,1,2.677-1.689,2.678,2.678,0,0,1,1.689.526,5.742,5.742,0,0,1,.7.685l.366.494a44.045,44.045,0,0,1,4.1,7.777c.542,1.2,1.785,3.968,3.825,8.638a67.715,67.715,0,0,1,2.932-9.961,38.757,38.757,0,0,1,5.148-9.674,8.113,8.113,0,0,1,1.163-1.323,2.933,2.933,0,0,1,1.976-.7,2.71,2.71,0,0,1,2.056,1.418,3.378,3.378,0,0,1,.829,1.9,2.534,2.534,0,0,1-1.355,1.992l-.494.351a27.984,27.984,0,0,0-4.351,7.634,61.355,61.355,0,0,0-3.3,11.156c-.1.462-.255,1.4-.462,2.789l-.239,1.594a3.682,3.682,0,0,1-1.2,2.183,4.144,4.144,0,0,1-2.853.861Z" transform="translate(892.606 126.553)" fill="#2a3692"/>
    <path id="Path_753" data-name="Path 753" d="M411.514,315.644a8.717,8.717,0,0,1-6.2-2.343,9.18,9.18,0,0,1-2.566-7.044,19.794,19.794,0,0,1,6.773-14.583,10.471,10.471,0,0,1,6.773-2.693,6.948,6.948,0,0,1,3.857,1.052,4.128,4.128,0,0,1,1.944,3.6,5.865,5.865,0,0,1-2.47,4.478,19.957,19.957,0,0,1-5.323,3.028,32.989,32.989,0,0,1-5.5,1.594,15.443,15.443,0,0,0-.287,2.917,4.909,4.909,0,0,0,.924,3.267,3.187,3.187,0,0,0,2.55.972,5.944,5.944,0,0,0,4.781-2.088,23.016,23.016,0,0,0,3.586-5.546,3.644,3.644,0,0,1,.319-.7,2.072,2.072,0,0,1,1.9-1.514,2.024,2.024,0,0,1,1.928,2.311,12.321,12.321,0,0,1-1.4,4.414,18.583,18.583,0,0,1-4.176,5.913,10.28,10.28,0,0,1-7.411,2.964Zm4.207-21.515a4.4,4.4,0,0,0-2.566.892,9.707,9.707,0,0,0-2.247,2.247l1.1-.414a18.469,18.469,0,0,0,3.745-2.024,6.38,6.38,0,0,0,.733-.59A2.407,2.407,0,0,0,415.722,294.129Z" transform="translate(902.702 127.568)" fill="#2a3692"/>
    <g id="Group_108" data-name="Group 108" transform="translate(1187.127 409.423)">
      <path id="Path_743" data-name="Path 743" d="M333.379,323.891a2.948,2.948,0,0,1-1.881-.638,2.566,2.566,0,0,1-.956-2.056,8.845,8.845,0,0,1,.653-2.725c.367-1.1.59-1.753.653-1.976s.414-1.147.781-2.263.956-2.773,1.594-4.558c.08-.239.175-.478.255-.7l-.653.175a12.214,12.214,0,0,1-2.677.542,2.486,2.486,0,0,1-2.136-1.132,3.187,3.187,0,0,1-.51-1.753,2.375,2.375,0,0,1,.924-2.056,4.51,4.51,0,0,1,1.466-.669c1.307-.3,2.6-.606,3.968-.892l1.9-.4c.159-.494.3-.956.4-1.339s.319-1.036.542-1.673.414-1.339.653-2.231l.733-2.47c1.227-4.319,1.912-6.725,2.1-7.347a9.878,9.878,0,0,1,.59-1.355,2.231,2.231,0,0,1,1.992-1.2,6.645,6.645,0,0,1,1.131.1,2.152,2.152,0,0,1,.717-.494,2.98,2.98,0,0,1,1.355-.271c1.594,0,2.677,1.594,3.363,2.757a39.727,39.727,0,0,1,2.279,4.781c.43,1.1.956,2.693,1.594,4.781.319,1.1.606,1.992.813,2.709l.255-.1a3.189,3.189,0,0,1,.845-.606,2.2,2.2,0,0,1,.94-.223,2.041,2.041,0,0,1,1,.255,2.709,2.709,0,0,1,1.594,2.614,3.188,3.188,0,0,1-.3,1.355,2.8,2.8,0,0,1-.956,1.211,4.447,4.447,0,0,1-1.881.765h0c.239.861.478,1.976.749,3.442.574,3.187,1.163,5.9,1.737,8.1a7.967,7.967,0,0,1,.3,1.705,2.693,2.693,0,0,1-.924,2.024,3.028,3.028,0,0,1-1.96.717,2.662,2.662,0,0,1-2.136-1.132,5.259,5.259,0,0,1-.749-1.291c-.335-1.259-.622-2.518-.861-3.9s-.526-2.964-.845-4.781c-.127-.813-.319-1.817-.606-3l-.223-.988c-1.913.287-4.67.733-8.24,1.323l-1.849.319-.685,1.944-1.339,3.809c-1.084,3.395-1.881,6.056-2.343,7.969a3.762,3.762,0,0,1-.972,1.817A2.933,2.933,0,0,1,333.379,323.891Zm12.845-32.926a20.16,20.16,0,0,0-.765,1.944c-.637,1.928-1.594,4.909-2.853,8.877l3.028-.51,4.128-.653-.51-1.881c-.51-1.769-.972-3.187-1.387-4.319A28.694,28.694,0,0,0,346.272,291Z" transform="translate(-328.496 -284.509)" fill="#2a3692"/>
      <path id="Path_745" data-name="Path 745" d="M353.624,316.035a5.18,5.18,0,0,1-4.271-2.215,7.523,7.523,0,0,1-1.482-4.59,26.184,26.184,0,0,1,1.705-8.271,32.689,32.689,0,0,1,4.335-8.526c1.96-2.725,4.064-4.112,6.263-4.112a4.144,4.144,0,0,1,2.948,1.227,6.485,6.485,0,0,1,1.084,1.594,4.32,4.32,0,0,1,.574,2.04,10.6,10.6,0,0,1-.255,2.2c-.128.654-.462,2.359-2.008,2.359a2.2,2.2,0,0,1-2.167-1.705,7.636,7.636,0,0,1-.239-1.594,2.191,2.191,0,0,1,0-.3,6.566,6.566,0,0,0-2.12,2.167,27.409,27.409,0,0,0-3.187,6.869,21.083,21.083,0,0,0-1.259,5.9c0,1.594.383,1.594.51,1.594a3.682,3.682,0,0,0,1.976-.542,12.13,12.13,0,0,0,2.343-1.913,44.264,44.264,0,0,0,3.873-4.367l.558-.749a2.486,2.486,0,0,1,1.912-1.227,2.04,2.04,0,0,1,2.167,2.024c0,.526-.191,1.036-1.243,2.646a33.686,33.686,0,0,1-2.1,2.837,36.1,36.1,0,0,1-4.67,4.781,7.968,7.968,0,0,1-5.243,1.881Z" transform="translate(-316.994 -282.246)" fill="#2a3692"/>
      <path id="Path_747" data-name="Path 747" d="M364.754,316.035a5.18,5.18,0,0,1-4.271-2.215A7.523,7.523,0,0,1,359,309.23a26.1,26.1,0,0,1,1.705-8.271,32.685,32.685,0,0,1,4.335-8.526c1.96-2.725,4.064-4.112,6.263-4.112a4.08,4.08,0,0,1,2.932,1.227,6.375,6.375,0,0,1,1.1,1.594,4.319,4.319,0,0,1,.574,2.04,10.6,10.6,0,0,1-.255,2.2c-.128.653-.462,2.359-2.008,2.359a2.2,2.2,0,0,1-2.167-1.689,7.97,7.97,0,0,1-.239-1.673,2.18,2.18,0,0,1,0-.3,6.567,6.567,0,0,0-2.12,2.167,27.411,27.411,0,0,0-3.187,6.869,21.085,21.085,0,0,0-1.259,5.9c0,1.594.382,1.594.51,1.594a3.681,3.681,0,0,0,1.976-.542,12.75,12.75,0,0,0,2.343-1.913,44.277,44.277,0,0,0,3.841-4.4L373.9,303a2.486,2.486,0,0,1,1.912-1.227,2.04,2.04,0,0,1,2.167,2.024c0,.526-.191,1.036-1.243,2.646a31.258,31.258,0,0,1-2.1,2.837,36.093,36.093,0,0,1-4.67,4.781A7.968,7.968,0,0,1,364.754,316.035Z" transform="translate(-310.386 -282.246)" fill="#2a3692"/>
      <path id="Path_749" data-name="Path 749" d="M375.108,315.763a4.526,4.526,0,0,1-3.57-1.5,5.2,5.2,0,0,1-1.227-3.538,13.817,13.817,0,0,1,1.9-5.961,44.63,44.63,0,0,1,4.558-7,37.513,37.513,0,0,1,5.594-5.865,17.629,17.629,0,0,1,3.187-2.152,6.039,6.039,0,0,1,2.55-.653,4.686,4.686,0,0,1,2.375.7,5.817,5.817,0,0,1,1.912,1.833,4.988,4.988,0,0,1,.845,2.837,6.484,6.484,0,0,1-.191,1.594,3.3,3.3,0,0,1,.8,2.183c0,.542.08,1.594.127,3.187l.223,6.933a14.781,14.781,0,0,0,.08,2.024,2.518,2.518,0,0,1,.733,1.594,4.1,4.1,0,0,1-.733,2.183,2.741,2.741,0,0,1-2.295,1.466,2.917,2.917,0,0,1-2.709-1.976,7.554,7.554,0,0,1-.558-2.964c0-.669,0-2.486.112-5.451-.558.845-1.1,1.594-1.594,2.391a27.3,27.3,0,0,1-5.036,5.371,10.98,10.98,0,0,1-7.076,2.757Zm12.479-21.18s-.637,0-2.024,1.227a34.154,34.154,0,0,0-4.335,4.654,39.847,39.847,0,0,0-3.809,5.753,10.278,10.278,0,0,0-1.387,3.761,6.375,6.375,0,0,0,3.713-1.594,21.564,21.564,0,0,0,3.984-4.239q1.817-2.558,4.048-6.375a6.932,6.932,0,0,0,.414-2.407,1.131,1.131,0,0,0-.255-.749.366.366,0,0,0-.351-.032Z" transform="translate(-303.672 -281.783)" fill="#2a3692"/>
      <path id="Path_752" data-name="Path 752" d="M411.279,290.673a3.7,3.7,0,0,0-.781.622,28.685,28.685,0,0,0-4.638,8.08,63.245,63.245,0,0,0-3.395,11.379q-.143.717-.478,2.869l-.239,1.673a2.008,2.008,0,0,1-.653,1.2,2.693,2.693,0,0,1-1.737.43,10.3,10.3,0,0,1-1.594-2.885c-.924-1.928-1.9-4.016-2.917-6.247l-2.056-4.494q-1.865-4.064-3.187-6.375t-1.817-2.295a.366.366,0,0,0-.319.239c-.08.159-.159.239-.255.239a.51.51,0,0,1-.414-.207.733.733,0,0,1-.159-.462,3.188,3.188,0,0,1,.685-1.594c.462-.669.924-1,1.371-1a1.131,1.131,0,0,1,.717.191,2.741,2.741,0,0,1,.43.43l.287.382a47.953,47.953,0,0,1,3.968,7.554q1,2.151,4.972,11.236l1.1,2.534a26.807,26.807,0,0,1,.478-4.016,65.2,65.2,0,0,1,3.188-11.156,37.179,37.179,0,0,1,4.925-9.275,7.2,7.2,0,0,1,.924-1.068,1.4,1.4,0,0,1,.94-.319c.159,0,.414.255.765.749a2.5,2.5,0,0,1,.526.972C411.932,290.163,411.709,290.386,411.279,290.673Z" transform="translate(-293.975 -282.24)" fill="#2a3692"/>
      <path id="Path_754" data-name="Path 754" d="M422.3,301.79a13.436,13.436,0,0,1-1.275,3.777,16.973,16.973,0,0,1-3.825,5.4,8.654,8.654,0,0,1-6.279,2.486,7.22,7.22,0,0,1-5.116-1.913,7.666,7.666,0,0,1-2.056-5.881,18.248,18.248,0,0,1,6.215-13.355,8.877,8.877,0,0,1,5.737-2.327,5.354,5.354,0,0,1,2.98.8,2.534,2.534,0,0,1,1.227,2.263,4.382,4.382,0,0,1-1.9,3.187A17.866,17.866,0,0,1,413.121,299a29.962,29.962,0,0,1-6.215,1.721,17.005,17.005,0,0,0-.574,4.3,6.375,6.375,0,0,0,1.307,4.3,4.781,4.781,0,0,0,3.761,1.594,7.554,7.554,0,0,0,5.976-2.63,24.88,24.88,0,0,0,3.825-5.929,4.422,4.422,0,0,1,.335-.733c.159-.367.3-.558.43-.558S422.3,301.312,422.3,301.79Zm-5.387-9.419a3.745,3.745,0,0,0-1.833-.43,5.929,5.929,0,0,0-3.49,1.2,11.157,11.157,0,0,0-2.8,2.869,10.039,10.039,0,0,0-1.45,2.964,17.085,17.085,0,0,0,4.638-1.243,19.776,19.776,0,0,0,4.08-2.2c1.1-.8,1.594-1.45,1.594-1.96A1.323,1.323,0,0,0,416.914,292.372Z" transform="translate(-283.833 -281.261)" fill="#2a3692"/>
    </g>
  </g>
</svg>
