<svg xmlns="http://www.w3.org/2000/svg" viewBox="0 0 140.1 39.38"><defs><style>.cls-1{fill:#2a3692;}</style></defs><g id="Layer_2" data-name="Layer 2"><g id="Layer_1-2" data-name="Layer 1"><g id="Group_110" data-name="Group 110"><path id="Path_744" data-name="Path 744" class="cls-1" d="M29.38,17.8a1.35,1.35,0,0,1-.45.58,3.45,3.45,0,0,1-1.38.51c-.7.14-1.18.22-1.44.25q.39,1.82.39,1.77c.22.8.46,1.9.71,3.3Q28.08,29,29,32.44a9.17,9.17,0,0,1,.24,1.29,1.06,1.06,0,0,1-.38.81,1.33,1.33,0,0,1-.91.33,1,1,0,0,1-.86-.49,3.49,3.49,0,0,1-.53-.89c-.28-1.09-.56-2.3-.8-3.63s-.51-2.95-.83-4.79c-.12-.83-.33-1.85-.62-3.07l-.57-2.42Q20.9,20,14,21.17l-2.77.48-1,2.82L8.9,28.29c-1.12,3.47-1.91,6.13-2.39,8a2.34,2.34,0,0,1-.57,1.13A1.52,1.52,0,0,1,4,37.55a1,1,0,0,1-.35-.82,9.33,9.33,0,0,1,.57-2.21c.39-1.13.61-1.82.67-2s.39-1,.77-2.2.94-2.74,1.59-4.51,1.1-2.95,1.33-3.52c-1.63.38-2.84.68-3.64.9a12.17,12.17,0,0,1-2.25.48.87.87,0,0,1-.8-.4,1.54,1.54,0,0,1-.25-.89.89.89,0,0,1,.29-.78,3.24,3.24,0,0,1,1-.42c1.21-.28,2.49-.57,3.84-.86l2.8-.57c.32-.92.56-1.71.72-2.34.13-.42.29-.93.49-1.6s.45-1.4.7-2.32L12.14,11Q14,4.64,14.24,3.69a6.91,6.91,0,0,1,.45-1,.66.66,0,0,1,.6-.38A4.79,4.79,0,0,1,17,2.55a3.79,3.79,0,0,0,.3-.4,1.16,1.16,0,0,1,.48-.43,1.68,1.68,0,0,1,.7-.13c.58,0,1.23.65,2,2a34.41,34.41,0,0,1,2.18,4.64c.42,1.05.94,2.63,1.6,4.78s1.05,3.46,1.24,4.13a7.25,7.25,0,0,0,1.21-.26l.65-.22a2.28,2.28,0,0,0,.53-.34,3.64,3.64,0,0,1,.52-.35.55.55,0,0,1,.53,0,1.17,1.17,0,0,1,.62,1.2,1.77,1.77,0,0,1-.19.67Zm-7.09-4c-.51-1.83-1-3.33-1.44-4.48a25.62,25.62,0,0,0-1.72-3.63,7,7,0,0,0-1.77-2.34l-.52,1.24a22.8,22.8,0,0,0-1.39,3.3c-.76,2.29-2,6.09-3.63,11.38l5.59-1L22,17.61l1.29-.19Z"/><path id="Path_746" data-name="Path 746" class="cls-1" d="M47.21,23.25a28.84,28.84,0,0,1-2,2.68,35.1,35.1,0,0,1-4.48,4.64,6.36,6.36,0,0,1-4.13,1.59,3.58,3.58,0,0,1-3-1.59,5.87,5.87,0,0,1-1.16-3.63,24.73,24.73,0,0,1,1.59-7.75,31.41,31.41,0,0,1,4.11-8.13q2.49-3.44,5-3.44A2.44,2.44,0,0,1,45,8.39a4.86,4.86,0,0,1,.82,1.14,2.84,2.84,0,0,1,.38,1.29,10.07,10.07,0,0,1-.23,1.9c-.14.72-.28,1.07-.44,1.07a.61.61,0,0,1-.62-.52,6.1,6.1,0,0,1-.19-1.34,9.58,9.58,0,0,0-.29-1.6c-.1-.27-.24-.41-.43-.41-1.5,0-3,1.05-4.35,3.19a28.77,28.77,0,0,0-3.44,7.26,22.14,22.14,0,0,0-1.34,6.38q0,3.18,2.1,3.18a5.3,5.3,0,0,0,2.79-.76A14.83,14.83,0,0,0,42.38,27a49.3,49.3,0,0,0,4-4.54l.54-.74c.3-.4.53-.6.66-.6.38,0,.57.14.57.43a6.72,6.72,0,0,1-.95,1.69Z"/><path id="Path_748" data-name="Path 748" class="cls-1" d="M65,23.25a28.94,28.94,0,0,1-2,2.68,34.4,34.4,0,0,1-4.47,4.64,6.38,6.38,0,0,1-4.13,1.59,3.57,3.57,0,0,1-3-1.59,5.87,5.87,0,0,1-1.16-3.63,24.78,24.78,0,0,1,1.59-7.75,31.57,31.57,0,0,1,4.11-8.13q2.49-3.44,5-3.44a2.44,2.44,0,0,1,1.81.77,4.86,4.86,0,0,1,.82,1.14,2.84,2.84,0,0,1,.38,1.29,10.06,10.06,0,0,1-.22,1.9c-.15.72-.29,1.07-.45,1.07a.61.61,0,0,1-.62-.52,6.76,6.76,0,0,1-.19-1.34,9.58,9.58,0,0,0-.29-1.6c-.1-.27-.24-.41-.43-.41-1.5,0-3,1.05-4.35,3.19a28.77,28.77,0,0,0-3.44,7.26,22.48,22.48,0,0,0-1.34,6.38c0,2.12.7,3.19,2.1,3.19a5.38,5.38,0,0,0,2.79-.77A14.48,14.48,0,0,0,60.12,27a49.41,49.41,0,0,0,4-4.54l.54-.74c.3-.4.52-.6.65-.6.38,0,.58.14.58.43a7.08,7.08,0,0,1-1,1.69Z"/><path id="Path_750" data-name="Path 750" class="cls-1" d="M89.37,29.65a1,1,0,0,1,.33.59,2.56,2.56,0,0,1-.48,1.32c-.32.49-.63.73-1,.73a1.64,1.64,0,0,1-1.25-1A6,6,0,0,1,86.59,29c0-.77,0-3.06.15-6.89V20.25a2,2,0,0,0-.58-1.6Q84,22.28,82.15,25a26,26,0,0,1-4.78,5,9.39,9.39,0,0,1-6,2.36,3,3,0,0,1-2.37-1A3.61,3.61,0,0,1,68.14,29a12.44,12.44,0,0,1,1.72-5.23A42.88,42.88,0,0,1,74.26,17a36.1,36.1,0,0,1,5.35-5.63,16.07,16.07,0,0,1,2.83-1.93A4.61,4.61,0,0,1,84.3,9a3.21,3.21,0,0,1,1.59.48,4.24,4.24,0,0,1,1.39,1.34,3.48,3.48,0,0,1,.57,2A5.29,5.29,0,0,1,87,15.56l.81-.24q.53,0,.63,1.29c0,.51,0,1.6.11,3.19s.1,2.85.13,3.87,0,2.08.1,3.06,0,1.77.1,2.35A1.38,1.38,0,0,0,89.37,29.65ZM77.08,27.89a22.26,22.26,0,0,0,4.27-4.56q1.88-2.64,4.19-6.53a8.26,8.26,0,0,0,.58-3.11A2.71,2.71,0,0,0,85.51,12a1.93,1.93,0,0,0-1.59-.75,5.24,5.24,0,0,0-3.06,1.59,33.21,33.21,0,0,0-4.55,4.86,41.12,41.12,0,0,0-4,6,10.93,10.93,0,0,0-1.6,4.69c0,.95.45,1.43,1.34,1.43a7.84,7.84,0,0,0,5-1.9Z"/><path id="Path_751" data-name="Path 751" class="cls-1" d="M105.38,36.28c-1.2,0-1.59-.85-3.08-3.8q-1.38-2.91-2.91-6.26l-2.06-4.49c-1.23-2.68-2.26-4.78-3.06-6.27-.25-.46-.44-.78-.6-1h-.39a2.13,2.13,0,0,1-1.59-.83,2.34,2.34,0,0,1-.49-1.44,4.43,4.43,0,0,1,1-2.53,3.29,3.29,0,0,1,2.67-1.69,2.68,2.68,0,0,1,1.69.53,4.5,4.5,0,0,1,.7.68l.37.5a44,44,0,0,1,4.1,7.77c.54,1.2,1.78,4,3.82,8.64a69,69,0,0,1,2.94-10,38.87,38.87,0,0,1,5.14-9.67,7.8,7.8,0,0,1,1.17-1.33,2.91,2.91,0,0,1,2-.7,2.7,2.7,0,0,1,2.06,1.42,3.38,3.38,0,0,1,.83,1.9,2.54,2.54,0,0,1-1.36,2l-.49.35a28.09,28.09,0,0,0-4.35,7.64,61,61,0,0,0-3.3,11.15c-.1.47-.26,1.4-.46,2.79l-.24,1.6a3.74,3.74,0,0,1-1.2,2.18,4.14,4.14,0,0,1-2.86.86Z"/><path id="Path_753" data-name="Path 753" class="cls-1" d="M127.09,33.79a8.72,8.72,0,0,1-6.2-2.34,9.21,9.21,0,0,1-2.57-7A19.81,19.81,0,0,1,125.1,9.82a10.41,10.41,0,0,1,6.77-2.69,6.93,6.93,0,0,1,3.86,1,4.13,4.13,0,0,1,1.94,3.6,5.85,5.85,0,0,1-2.47,4.48,20.18,20.18,0,0,1-5.32,3,34.2,34.2,0,0,1-5.5,1.59,15.06,15.06,0,0,0-.29,2.92,4.93,4.93,0,0,0,.92,3.26,3.22,3.22,0,0,0,2.55,1A6,6,0,0,0,132.35,26a23.21,23.21,0,0,0,3.58-5.55,3.68,3.68,0,0,1,.32-.7,2.07,2.07,0,0,1,1.9-1.51,2,2,0,0,1,1.95,2.09c0,.08,0,.15,0,.22a12.5,12.5,0,0,1-1.4,4.41,18.52,18.52,0,0,1-4.18,5.92,10.3,10.3,0,0,1-7.41,3Zm4.21-21.51a4.35,4.35,0,0,0-2.57.89,9.76,9.76,0,0,0-2.25,2.24l1.1-.41a18.82,18.82,0,0,0,3.75-2,7,7,0,0,0,.73-.59,2.19,2.19,0,0,0-.76-.11Z"/><g id="Group_108" data-name="Group 108"><path id="Path_743" data-name="Path 743" class="cls-1" d="M4.88,39.38A3,3,0,0,1,3,38.75a2.56,2.56,0,0,1-1-2.06A8.86,8.86,0,0,1,2.7,34c.37-1.1.59-1.75.65-2s.42-1.15.78-2.27,1-2.77,1.6-4.55c.08-.24.17-.48.25-.7l-.65.17a12.25,12.25,0,0,1-2.68.54A2.46,2.46,0,0,1,.52,24.05,3.11,3.11,0,0,1,0,22.3a2.38,2.38,0,0,1,.92-2.06,4.57,4.57,0,0,1,1.47-.67c1.3-.3,2.6-.6,4-.89l1.9-.4c.16-.49.3-1,.4-1.34s.32-1,.55-1.67.41-1.34.65-2.23l.73-2.47c1.23-4.32,1.91-6.73,2.1-7.35a9.51,9.51,0,0,1,.59-1.35,2.23,2.23,0,0,1,2-1.2,6.27,6.27,0,0,1,1.14.1,2.23,2.23,0,0,1,.71-.5A3,3,0,0,1,18.48,0c1.59,0,2.67,1.6,3.36,2.76a38.74,38.74,0,0,1,2.28,4.78q.64,1.65,1.59,4.78c.32,1.1.61,2,.82,2.71l.25-.1a3.22,3.22,0,0,1,.85-.61,2.16,2.16,0,0,1,.94-.22,2.07,2.07,0,0,1,1,.26A2.69,2.69,0,0,1,31.16,17a3.21,3.21,0,0,1-.3,1.36,2.84,2.84,0,0,1-1,1.21A4.56,4.56,0,0,1,28,20.3h0c.24.86.48,2,.75,3.44.58,3.19,1.17,5.9,1.74,8.1a8.28,8.28,0,0,1,.3,1.71,2.7,2.7,0,0,1-.92,2,3,3,0,0,1-2,.72,2.67,2.67,0,0,1-2.14-1.13A5.57,5.57,0,0,1,25,33.87c-.33-1.26-.62-2.52-.86-3.9s-.53-3-.85-4.78c-.12-.82-.31-1.82-.6-3l-.22-1c-1.92.28-4.67.73-8.24,1.32l-1.85.32-.69,1.94-1.34,3.81c-1.08,3.4-1.88,6.06-2.34,8a3.84,3.84,0,0,1-1,1.82A3,3,0,0,1,4.88,39.38ZM17.73,6.46A19.09,19.09,0,0,0,17,8.4c-.63,1.93-1.59,4.91-2.85,8.88l3-.51,4.13-.65-.51-1.89c-.51-1.77-1-3.18-1.39-4.32a31.17,31.17,0,0,0-1.59-3.42Z"/><path id="Path_745" data-name="Path 745" class="cls-1" d="M36.63,33.79a5.18,5.18,0,0,1-4.27-2.21A7.45,7.45,0,0,1,30.88,27a26.06,26.06,0,0,1,1.7-8.28,32.47,32.47,0,0,1,4.34-8.52c2-2.73,4.06-4.11,6.26-4.11a4.13,4.13,0,0,1,3,1.22,6.43,6.43,0,0,1,1.08,1.6,4.3,4.3,0,0,1,.58,2,10.92,10.92,0,0,1-.26,2.2c-.13.65-.46,2.36-2,2.36a2.19,2.19,0,0,1-2.16-1.71,7.11,7.11,0,0,1-.24-1.59,1.5,1.5,0,0,1,0-.3A6.53,6.53,0,0,0,41,14.06a27.51,27.51,0,0,0-3.19,6.87,21.37,21.37,0,0,0-1.26,5.9c0,1.6.38,1.6.51,1.6a3.74,3.74,0,0,0,2-.54A12.66,12.66,0,0,0,41.38,26a44.34,44.34,0,0,0,3.87-4.36l.56-.75a2.49,2.49,0,0,1,1.91-1.23,2,2,0,0,1,2.17,1.91v.11c0,.53-.19,1-1.24,2.65a34.1,34.1,0,0,1-2.1,2.84,37,37,0,0,1-4.67,4.78,8.05,8.05,0,0,1-5.25,1.88Z"/><path id="Path_747" data-name="Path 747" class="cls-1" d="M54.37,33.79a5.18,5.18,0,0,1-4.27-2.21A7.53,7.53,0,0,1,48.61,27a26.35,26.35,0,0,1,1.71-8.28,32.75,32.75,0,0,1,4.33-8.52c2-2.73,4.07-4.11,6.27-4.11A4,4,0,0,1,63.85,7.3,6.51,6.51,0,0,1,65,8.9a4.29,4.29,0,0,1,.57,2,10.24,10.24,0,0,1-.25,2.2c-.13.65-.46,2.36-2,2.36a2.21,2.21,0,0,1-2.17-1.69,7.92,7.92,0,0,1-.24-1.68v-.3A6.66,6.66,0,0,0,58.73,14a27.51,27.51,0,0,0-3.18,6.87,20.94,20.94,0,0,0-1.26,5.9c0,1.59.38,1.59.51,1.59a3.61,3.61,0,0,0,2-.54,12.67,12.67,0,0,0,2.35-1.91A44.64,44.64,0,0,0,63,21.51l.55-.75a2.48,2.48,0,0,1,1.92-1.23,2,2,0,0,1,2.16,1.91v.11c0,.53-.19,1-1.24,2.65A34.1,34.1,0,0,1,64.25,27a37,37,0,0,1-4.67,4.78A8,8,0,0,1,54.37,33.79Z"/><path id="Path_749" data-name="Path 749" class="cls-1" d="M71.44,34a4.51,4.51,0,0,1-3.57-1.5,5.14,5.14,0,0,1-1.23-3.54,13.88,13.88,0,0,1,1.9-6,44.71,44.71,0,0,1,4.56-7,36.91,36.91,0,0,1,5.59-5.86A17.16,17.16,0,0,1,81.88,8a6,6,0,0,1,2.55-.66A4.71,4.71,0,0,1,86.8,8a5.92,5.92,0,0,1,1.92,1.84,5,5,0,0,1,.84,2.83,6.67,6.67,0,0,1-.19,1.6,3.28,3.28,0,0,1,.8,2.18c0,.54.08,1.59.13,3.19l.22,6.93a15.16,15.16,0,0,0,.08,2,2.5,2.5,0,0,1,.73,1.6,4.06,4.06,0,0,1-.73,2.18,2.76,2.76,0,0,1-2.3,1.47,2.92,2.92,0,0,1-2.7-2,7.35,7.35,0,0,1-.56-3c0-.67,0-2.49.11-5.45-.56.84-1.1,1.59-1.59,2.39a27.6,27.6,0,0,1-5,5.37A11,11,0,0,1,71.44,34ZM83.92,12.8s-.64,0-2,1.23a33.42,33.42,0,0,0-4.33,4.65,39.33,39.33,0,0,0-3.81,5.76,10.12,10.12,0,0,0-1.39,3.76,6.4,6.4,0,0,0,3.71-1.6,21.12,21.12,0,0,0,4-4.24c1.21-1.7,2.56-3.83,4-6.37a7.31,7.31,0,0,0,.41-2.41,1.09,1.09,0,0,0-.26-.75.36.36,0,0,0-.35,0Z"/><path id="Path_752" data-name="Path 752" class="cls-1" d="M117.3,8.43a3.92,3.92,0,0,0-.78.63,28.61,28.61,0,0,0-4.63,8.08,62.36,62.36,0,0,0-3.4,11.38c-.1.47-.25,1.43-.48,2.86l-.24,1.68a2,2,0,0,1-.65,1.2,2.74,2.74,0,0,1-1.74.43,10.32,10.32,0,0,1-1.59-2.89c-.92-1.93-1.9-4-2.92-6.24l-2.05-4.5Q96.95,17,95.63,14.69c-.88-1.54-1.49-2.31-1.82-2.3a.37.37,0,0,0-.32.24c-.08.16-.16.24-.25.24a.53.53,0,0,1-.42-.21.69.69,0,0,1-.15-.46,3.11,3.11,0,0,1,.68-1.59c.46-.67.92-1,1.37-1a1.09,1.09,0,0,1,.72.19,2.5,2.5,0,0,1,.43.43l.29.38a47.6,47.6,0,0,1,4,7.55q1,2.16,5,11.24l1.1,2.53a25.66,25.66,0,0,1,.47-4,65.51,65.51,0,0,1,3.19-11.16,37,37,0,0,1,4.93-9.27,6.74,6.74,0,0,1,.92-1.07,1.4,1.4,0,0,1,.94-.32c.16,0,.41.25.77.75a2.54,2.54,0,0,1,.52,1C118,7.92,117.73,8.15,117.3,8.43Z"/><path id="Path_754" data-name="Path 754" class="cls-1" d="M138.47,20.53a13.61,13.61,0,0,1-1.28,3.78,17.12,17.12,0,0,1-3.82,5.4,8.66,8.66,0,0,1-6.28,2.48A7.23,7.23,0,0,1,122,30.28a7.68,7.68,0,0,1-2-5.88A18.22,18.22,0,0,1,126.13,11a8.91,8.91,0,0,1,5.74-2.32,5.33,5.33,0,0,1,3,.8,2.53,2.53,0,0,1,1.23,2.26,4.41,4.41,0,0,1-1.9,3.19,18.21,18.21,0,0,1-4.89,2.77,29.9,29.9,0,0,1-6.22,1.72,17.32,17.32,0,0,0-.57,4.3,6.34,6.34,0,0,0,1.31,4.3,4.8,4.8,0,0,0,3.76,1.6,7.59,7.59,0,0,0,6-2.63,25.28,25.28,0,0,0,3.83-5.93,4.91,4.91,0,0,1,.33-.74c.16-.36.3-.55.43-.55S138.47,20.05,138.47,20.53Zm-5.39-9.42a3.77,3.77,0,0,0-1.83-.43,5.94,5.94,0,0,0-3.49,1.2,11.07,11.07,0,0,0-2.8,2.87,9.71,9.71,0,0,0-1.45,3,17,17,0,0,0,4.64-1.24,19.83,19.83,0,0,0,4.08-2.2c1.1-.8,1.59-1.45,1.59-2a1.33,1.33,0,0,0-.74-1.2Z"/></g></g></g></g></svg>